<svg version="1.0" xmlns="http://www.w3.org/2000/svg" width="851.952632pt" height="935.000000pt" viewBox="0 0 851.952632 935.000000" preserveAspectRatio="xMidYMid meet">
<metadata>
Created by potrace 1.12, written by Peter Selinger 2001-2015
</metadata>
<g transform="translate(-583.047368,1369.000000) scale(0.100000,-0.100000)" fill="#000000" stroke="none">
<path d="M10027 12188 c-4 -827 -10 -2902 -14 -4611 l-6 -3108 64 -65 c35 -35
69 -64 76 -64 10 0 13 104 13 518 0 284 5 2357 11 4606 l11 4088 -68 69 c-38
38 -71 69 -75 69 -3 0 -9 -676 -12 -1502z" data-index="0" style="visibility: visible;"></path>
<path d="M6110 11973 c0 -10 397 -404 850 -843 184 -179 522 -507 750 -731
228 -223 495 -483 593 -579 97 -95 177 -177 177 -182 0 -9 -76 -81 -92 -86
-11 -5 -64 43 -253 228 -118 115 -557 535 -611 585 -7 5 -83 80 -171 165 -87
85 -199 193 -248 240 -50 47 -214 204 -365 350 -261 252 -619 595 -796 763
-45 42 -84 77 -88 77 -3 0 -6 -127 -6 -283 l0 -284 118 -113 c64 -63 166 -161
227 -219 60 -58 195 -189 300 -291 326 -317 546 -530 676 -654 135 -131 296
-287 664 -646 l239 -233 -101 -96 c-55 -53 -262 -251 -458 -441 -197 -190
-422 -405 -499 -479 -180 -171 -634 -609 -1054 -1015 l-123 -118 3 -97 3 -96
115 110 c480 457 794 757 905 864 72 70 269 259 440 421 170 162 377 360 460
440 154 150 277 266 378 358 l57 53 295 -6 c190 -4 295 -3 295 3 0 5 -63 71
-140 145 -77 75 -140 142 -140 150 0 19 78 89 94 85 7 -2 98 -85 201 -184
l188 -182 201 -7 c110 -4 219 -5 241 -3 l40 3 3 170 2 171 -224 224 c-133 132
-222 228 -218 235 4 6 107 107 230 225 l223 214 -3 96 c-2 65 -7 95 -15 95 -6
0 -78 -65 -160 -145 -271 -266 -396 -379 -410 -372 -7 4 -113 107 -235 228
-123 121 -350 343 -505 493 -156 151 -283 281 -283 289 0 13 119 14 990 7 767
-6 993 -5 1005 5 12 10 14 79 15 445 0 239 -3 436 -7 438 -15 9 -3773 19
-3773 10z m2854 -1992 c21 -22 37 -44 35 -50 -5 -13 -390 -381 -399 -381 -3 0
-25 20 -49 44 l-43 44 194 191 c106 104 200 191 208 191 9 0 33 -18 54 -39z
m-534 -497 c22 -20 40 -41 40 -48 0 -6 -63 -74 -140 -151 l-139 -139 -23 20
c-30 25 -68 67 -68 75 0 7 277 279 284 279 3 0 24 -16 46 -36z" data-index="1" style="visibility: visible;"></path>
<path d="M10316 11962 c-3 -3 -6 -205 -6 -449 l0 -443 1005 0 c553 0 1005 -4
1005 -8 0 -10 -290 -294 -740 -728 -69 -66 -220 -212 -335 -324 -116 -113
-286 -277 -378 -364 l-167 -160 0 -173 0 -173 244 0 245 0 193 187 c106 103
249 242 318 308 69 66 204 196 300 290 96 93 227 220 290 280 63 61 187 180
275 265 88 85 279 270 425 410 146 140 389 374 540 520 408 393 565 548 560
553 -7 7 -3768 16 -3774 9z" data-index="2" style="visibility: visible;"></path>
<path d="M14208 11843 c-193 -185 -681 -648 -797 -757 -58 -55 -160 -151 -226
-215 -66 -64 -251 -240 -410 -391 -160 -151 -342 -324 -405 -385 -63 -61 -144
-138 -179 -171 -35 -32 -121 -113 -190 -180 -69 -66 -235 -223 -368 -349 -133
-126 -239 -233 -237 -237 3 -4 140 -8 305 -8 l300 0 57 53 c31 28 110 104 177
168 66 63 169 162 230 220 60 57 157 150 215 205 58 56 150 144 205 195 55 52
159 150 230 219 72 69 258 247 415 395 410 388 718 682 773 736 l47 47 0 280
c0 168 -4 283 -10 287 -5 3 -64 -47 -132 -112z" data-index="3" style="visibility: visible;"></path>
<path d="M9012 8892 c-22 -3 -97 -74 -492 -457 -91 -88 -338 -327 -550 -530
-212 -203 -459 -442 -550 -530 -91 -88 -221 -214 -290 -280 -273 -261 -714
-688 -873 -845 l-168 -165 243 -5 c134 -3 984 -6 1891 -8 l1647 -2 0 444 0
444 -457 4 c-252 3 -703 6 -1002 7 -300 1 -546 3 -549 5 -3 4 208 213 508 501
74 71 212 204 305 295 94 91 226 219 295 285 68 66 205 199 303 295 99 96 186
181 193 188 19 18 20 340 2 347 -16 5 -423 11 -456 7z" data-index="4" style="visibility: visible; opacity: 1;"></path>
<path d="M10700 8717 l0 -174 503 -490 c276 -269 637 -621 802 -782 165 -160
302 -296 303 -301 2 -6 -363 -10 -1002 -10 l-1006 0 -2 -350 c-2 -192 -3 -392
-3 -442 l0 -93 120 -8 c66 -4 918 -6 1892 -5 l1773 3 -343 334 c-188 184 -450
441 -582 570 -132 130 -384 376 -560 546 -176 171 -432 420 -570 555 -398 389
-612 598 -730 713 l-110 107 -242 0 -243 0 0 -173z" data-index="5" style="visibility: visible; opacity: 1;"></path>
<path d="M7975 8688 c-348 -332 -384 -367 -670 -638 -154 -146 -332 -315 -395
-376 -63 -60 -149 -141 -190 -180 -41 -38 -131 -123 -200 -189 -302 -291 -537
-515 -607 -580 l-76 -71 -5 -286 c-3 -209 -1 -287 7 -292 7 -5 62 41 139 116
70 68 170 164 222 213 52 49 151 144 220 210 113 109 977 929 1175 1115 44 41
134 127 200 190 66 64 158 152 205 195 47 44 137 130 200 191 63 60 162 155
220 209 192 182 370 355 370 360 0 3 -138 5 -307 5 l-308 0 -200 -192z" data-index="6" style="visibility: visible;"></path>
<path d="M11395 8870 c-2 -4 39 -49 93 -101 53 -51 165 -159 247 -239 83 -80
195 -188 250 -240 266 -254 373 -356 520 -500 144 -141 505 -487 948 -909 89
-85 279 -268 422 -406 425 -410 439 -423 447 -419 5 3 8 134 8 291 l0 285
-162 157 c-90 86 -291 280 -448 431 -157 151 -393 378 -525 505 -132 126 -305
293 -385 371 -80 78 -197 191 -260 251 -63 60 -212 202 -330 316 l-215 206
-235 2 c-129 2 -265 3 -303 5 -37 1 -69 -2 -72 -6z" data-index="7" style="visibility: visible; opacity: 1;"></path>
</g>
</svg>