<?xml version="1.0" standalone="no"?>
<!DOCTYPE svg PUBLIC "-//W3C//DTD SVG 20010904//EN"
 "http://www.w3.org/TR/2001/REC-SVG-20010904/DTD/svg10.dtd">
<svg version="1.0" xmlns="http://www.w3.org/2000/svg"
 width="827.911599pt" height="710.299519pt" viewBox="0 0 827.911599 710.299519"
 preserveAspectRatio="xMidYMid meet">
<metadata>
Created by potrace 1.12, written by Peter Selinger 2001-2015
</metadata>
<g transform="translate(-587.588401,1354.920310) scale(0.100000,-0.100000)"
fill="#000000" stroke="none">
<path d="M9855 13503 c-55 -25 -199 -74 -320 -110 -121 -35 -359 -105 -530
-154 -170 -50 -368 -108 -440 -129 -71 -21 -163 -48 -202 -60 -68 -20 -73 -23
-73 -49 0 -16 -6 -33 -12 -38 -7 -5 -123 -60 -258 -123 l-245 -113 -53 11 -53
11 -517 -180 c-284 -99 -560 -195 -612 -214 -52 -18 -229 -80 -392 -137 -191
-66 -288 -104 -270 -106 15 -1 394 -11 842 -21 l815 -19 74 -26 c94 -33 97
-33 651 8 l445 32 575 -42 c316 -24 657 -48 757 -55 l182 -13 478 43 c667 61
930 66 2113 40 498 -10 1004 -19 1125 -18 l220 0 -205 75 c-113 41 -353 128
-535 194 -181 65 -487 176 -680 246 -345 125 -352 127 -475 138 l-125 12 39
17 c22 10 37 19 35 21 -2 2 -80 31 -174 64 -93 33 -352 126 -575 207 -223 81
-556 201 -740 267 l-335 121 -81 -11 c-112 -17 -109 -17 -84 24 12 19 21 37
19 38 -9 8 -261 96 -272 95 -7 0 -57 -21 -112 -46z"/>
<path d="M6516 11763 c-3 -10 -52 -245 -111 -522 l-105 -503 21 -157 22 -156
-52 -380 c-29 -209 -54 -392 -57 -407 -5 -24 3 -33 80 -90 47 -35 85 -66 86
-70 0 -4 -35 -14 -77 -23 -129 -27 -119 -15 -126 -157 -3 -69 -13 -145 -22
-173 -9 -27 -27 -121 -39 -208 -20 -136 -22 -166 -12 -215 12 -54 10 -67 -31
-232 -58 -236 -98 -566 -113 -928 -9 -213 -9 -281 1 -310 96 -292 707 -489
1949 -627 401 -44 1191 -112 1580 -135 337 -20 850 -29 1095 -20 276 10 1192
73 1400 96 456 50 942 142 1259 239 407 124 652 281 697 448 8 32 8 80 -1 195
l-13 153 -176 90 -176 89 168 -6 167 -6 0 28 c0 16 -4 34 -8 40 -4 6 -45 21
-92 33 -47 13 -88 26 -92 30 -5 4 33 24 82 45 50 21 90 43 90 48 0 6 -25 285
-55 622 -47 523 -59 628 -84 731 -23 91 -35 185 -53 383 l-22 263 -73 117
c-41 64 -75 126 -78 137 -2 11 -23 326 -45 700 -23 374 -43 681 -44 682 -1 1
-509 11 -1129 23 l-1128 20 -613 -20 -614 -21 -473 51 -474 50 -225 -50 -225
-51 -1022 86 c-562 47 -1024 85 -1027 85 -2 0 -7 -8 -10 -17z m1059 -1233
c242 -110 444 -200 451 -200 6 0 215 93 464 206 248 113 453 204 454 202 8
-12 76 -169 76 -175 0 -5 -165 -83 -366 -174 -201 -92 -366 -170 -367 -174 -1
-4 163 -83 365 -174 202 -91 368 -170 368 -174 0 -14 -74 -177 -81 -177 -3 0
-195 86 -425 191 -230 105 -435 197 -455 205 l-37 15 -452 -205 c-249 -113
-456 -206 -459 -206 -7 0 -81 163 -81 177 1 4 170 84 376 177 l375 169 -68 32
c-37 17 -206 94 -375 170 -170 77 -308 143 -308 147 0 4 17 46 38 92 27 63 41
84 52 81 9 -3 213 -95 455 -205z m3850 6 c237 -108 439 -199 451 -202 13 -3
176 65 473 201 250 113 455 204 457 203 1 -2 21 -43 43 -91 l41 -88 -93 -43
c-50 -24 -219 -100 -375 -171 -155 -71 -279 -132 -275 -135 4 -4 170 -81 368
-170 198 -89 363 -165 367 -169 5 -5 -63 -166 -77 -179 -2 -2 -209 89 -460
203 l-456 208 -442 -201 c-243 -111 -450 -204 -459 -207 -14 -6 -25 10 -58 81
-22 48 -37 91 -33 95 5 4 171 82 371 172 200 91 365 167 368 169 2 2 -165 81
-371 174 -314 142 -373 172 -369 187 17 55 77 168 87 164 7 -3 206 -93 442
-201z m-1821 -2521 c197 -228 362 -415 367 -415 4 0 168 186 364 413 196 226
360 413 364 415 4 1 168 -185 365 -413 198 -228 363 -415 367 -415 5 0 151
166 326 369 175 203 323 370 328 370 16 1 140 -108 140 -123 0 -17 -785 -928
-796 -924 -4 2 -168 189 -364 416 -196 226 -360 412 -364 412 -4 0 -169 -187
-366 -415 -197 -228 -361 -415 -364 -415 -3 0 -167 187 -364 415 -198 228
-362 415 -366 415 -4 0 -169 -187 -366 -415 -197 -229 -362 -414 -367 -413
-14 5 -799 919 -796 927 6 16 137 123 146 119 5 -1 152 -168 327 -370 175
-203 321 -368 326 -368 4 0 169 187 366 415 197 228 360 415 363 415 3 0 167
-187 364 -415z"/>
</g>
</svg>
